<svg version="1.1" xmlns="http://www.w3.org/2000/svg" width="48%" height="48%" viewBox="91.82672119140625 87.14439392089844 5650.6591796875 5652.31640625" preserveAspectRatio="xMidYMid meet" xmlns:xlink="http://www.w3.org/1999/xlink" transform="scale(1 -1)">
  <circle cx="2917" cy="2913" r="2826" fill="white"/>
  <g fill="#cc1734" stroke="none">
    <path d="M2810.4 5737.44c-583.68 -23.52 -1139.52 -222.24 -1601.76 -573.12 -198.72 -151.2 -406.08 -360.48 -556.8 -561.12 -424.32 -566.88 -621.12 -1289.28 -543.36 -1994.4C170.4 2045.76 387.36 1536 752.16 1095.84c66.72 -79.68 269.76 -282.72 349.44 -348.96 217.44 -180.48 444.48 -320.16 701.28 -431.52 518.88 -224.64 1108.8 -285.6 1672.32 -173.28 465.6 92.64 897.6 300.96 1267.2 611.52 82.56 69.12 270.72 257.28 337.92 338.4 385.92 463.2 604.8 997.44 656.16 1603.2 7.68 90.24 8.16 348.48 0.48 434.4 -35.04 392.64 -130.08 731.04 -298.56 1063.2 -402.72 793.92 -1162.56 1355.04 -2037.6 1504.8 -194.4 33.12 -404.64 47.52 -590.4 39.84m631.2 -432.48c84.48 -25.92 150.24 -64.8 204.48 -121.92 55.68 -58.56 92.64 -123.84 113.28 -199.68 14.88 -53.28 14.88 -169.44 0 -223.2 -22.56 -81.6 -66.24 -155.04 -127.2 -213.12 -85.92 -81.6 -186.72 -121.44 -308.16 -121.44 -120.96 0 -222.24 39.84 -307.68 120.96 -187.68 178.56 -186.72 473.28 1.44 652.8 58.08 55.2 129.6 92.16 215.04 111.84 43.2 10.08 168 6.24 208.8 -6.24M2089.44 4548c314.88 -41.76 571.68 -281.28 634.08 -590.4 14.4 -72 17.28 -153.6 17.28 -527.04v-373.44l-423.36 1.92c-418.56 1.44 -424.32 1.92 -471.84 12.48 -149.28 33.12 -267.36 95.04 -368.64 192 -155.04 148.8 -233.76 331.2 -233.76 542.4 0 208.32 79.2 396 227.52 539.52 119.52 115.2 270.72 184.8 446.88 206.4 36 4.8 124.8 2.4 171.84 -3.84m1515.36 -904.8v-585.6h-561.6v1171.2h561.6zm-2448 -580.32v-311.52l37.44 38.88c119.52 123.84 262.56 177.6 427.2 161.76 191.04 -19.2 322.08 -122.4 377.28 -297.6 26.4 -83.04 26.88 -91.68 26.88 -605.76V1574.4H1464l-0.96 383.04 -1.44 382.56 -11.04 26.88c-21.12 52.32 -62.4 87.36 -113.28 95.52 -68.16 11.04 -134.88 -25.44 -165.12 -90.24l-12.96 -27.36 -2.4 -384 -2.4 -384 -279.36 -1.44 -279.84 -0.96v1800h561.6zm3172.8 6.72c0 -167.52 0.96 -304.8 2.4 -304.8s18.24 15.84 37.44 35.04c120 120 252 168.48 412.8 152.16 324 -32.64 539.52 -333.12 525.12 -732 -9.12 -263.04 -111.36 -470.4 -291.36 -591.36 -82.08 -55.2 -178.08 -83.04 -285.6 -83.04 -148.8 0 -257.28 43.68 -366.72 146.4l-34.08 32.16V1574.4l-279.36 0.96 -279.84 1.44 -1.44 899.04 -0.96 898.56h561.6zm-1598.4 -500.16c0 -210.24 1.92 -367.68 4.8 -387.36 13.44 -91.68 70.56 -146.88 151.68 -146.88 59.52 0 118.56 41.28 142.08 99.36l11.04 27.84 1.44 380.64 1.44 380.16h561.12V1574.4h-561.6v173.76l-44.16 -45.12c-71.52 -72.48 -148.32 -118.08 -242.88 -144.48 -31.2 -8.64 -50.4 -10.08 -125.76 -10.08 -78.24 -0.48 -94.08 0.96 -132 11.04 -173.76 45.12 -278.88 163.68 -317.76 358.08 -6.72 33.12 -7.68 102.72 -9.6 522.24l-1.92 483.36h562.08z"/>
    <path d="M1926.24 4087.2c-106.56 -23.04 -196.8 -115.68 -217.92 -222.72 -7.68 -41.28 -3.36 -115.2 10.08 -152.64 41.76 -119.52 165.12 -200.64 290.88 -192 50.88 3.84 100.32 20.64 142.56 49.44 42.72 29.28 71.52 62.4 95.04 109.92 56.16 112.8 34.56 241.44 -55.2 331.2 -70.08 69.6 -168 97.92 -265.44 76.8"/>
    <path d="M4477.44 2482.08c-39.84 -12.96 -66.72 -30.24 -94.08 -60.48 -87.84 -96 -84.48 -258.24 7.2 -349.44 108.96 -108.48 284.16 -75.84 349.44 65.28 29.76 63.84 33.12 135.36 9.6 202.56 -22.08 63.36 -59.04 104.16 -119.52 132.48 -28.32 13.44 -39.36 15.84 -79.2 17.28 -35.52 0.96 -52.32 -0.48 -73.44 -7.68"/>
  </g>
</svg>
